<?xml version="1.0" encoding="UTF-8" standalone="no"?>
<!-- Created with Inkscape (http://www.inkscape.org/) -->

<svg
   width="210mm"
   height="297mm"
   viewBox="0 0 210 297"
   version="1.1"
   id="svg1"
   xml:space="preserve"
   inkscape:version="1.3.1 (91b66b0783, 2023-11-16)"
   sodipodi:docname="ILASED_FULL.svg"
   xmlns:inkscape="http://www.inkscape.org/namespaces/inkscape"
   xmlns:sodipodi="http://sodipodi.sourceforge.net/DTD/sodipodi-0.dtd"
   xmlns:xlink="http://www.w3.org/1999/xlink"
   xmlns="http://www.w3.org/2000/svg"
   xmlns:svg="http://www.w3.org/2000/svg"><sodipodi:namedview
     id="namedview1"
     pagecolor="#ffffff"
     bordercolor="#000000"
     borderopacity="0.25"
     inkscape:showpageshadow="2"
     inkscape:pageopacity="0.0"
     inkscape:pagecheckerboard="0"
     inkscape:deskcolor="#d1d1d1"
     inkscape:document-units="mm"
     showguides="true"
     inkscape:zoom="1"
     inkscape:cx="225.5"
     inkscape:cy="531.5"
     inkscape:window-width="1920"
     inkscape:window-height="1017"
     inkscape:window-x="-8"
     inkscape:window-y="-8"
     inkscape:window-maximized="1"
     inkscape:current-layer="layer5" /><defs
     id="defs1"><linearGradient
       id="linearGradient53"
       inkscape:collect="always"><stop
         style="stop-color:#acff46;stop-opacity:1;"
         offset="0.50873786"
         id="stop53" /><stop
         style="stop-color:#ffff00;stop-opacity:1;"
         offset="1"
         id="stop54" /></linearGradient><rect
       x="232.28458"
       y="610.94025"
       width="319.2587"
       height="42.426407"
       id="rect52" /><linearGradient
       id="linearGradient51"
       inkscape:collect="always"><stop
         style="stop-color:#2bff00;stop-opacity:1;"
         offset="0"
         id="stop51" /><stop
         style="stop-color:#ffff00;stop-opacity:1;"
         offset="0.80000001"
         id="stop52" /></linearGradient><linearGradient
       id="linearGradient47"
       inkscape:collect="always"><stop
         style="stop-color:#2bff00;stop-opacity:1;"
         offset="0"
         id="stop47" /><stop
         style="stop-color:#ffff00;stop-opacity:1;"
         offset="1"
         id="stop48" /></linearGradient><linearGradient
       id="linearGradient45"
       inkscape:collect="always"><stop
         style="stop-color:#eaff00;stop-opacity:1;"
         offset="0"
         id="stop44" /><stop
         style="stop-color:#37ff0f;stop-opacity:1;"
         offset="1"
         id="stop45" /></linearGradient><clipPath
       clipPathUnits="userSpaceOnUse"
       id="clipPath12"><path
         id="lpe_path-effect12"
         style="display:inline;fill:#000000;stroke-width:0.264583"
         class="powerclip"
         d="m 81.875624,114.03967 h 43.435846 v 47.20271 H 81.875624 Z m 16.159218,5.78602 0.927272,0.28771 -5.179926,3.00563 0.606719,0.0278 -5.466892,5.55185 -0.735423,3.75704 1.278993,-1.23103 -1.662689,6.68274 1.374918,-1.24702 0.36771,7.03446 0.845394,-1.20969 2.825893,6.67853 0.718631,-1.0844 7.253608,6.84763 0.84733,-1.58356 1.53673,2.01602 1.57192,-2.08304 0.74318,1.59405 7.40023,-6.82776 0.6379,1.06841 2.85319,-6.82663 0.73849,1.27125 0.42423,-6.85052 1.10862,0.92226 -1.44743,-6.73847 1.39091,1.51881 -0.97524,-3.67711 -5.35933,-5.55586 0.73349,-0.0678 -5.27037,-3.04149 0.84733,-0.20783 -0.67147,-0.19185 -4.74826,1.5188 -4.94011,-1.53479 c 0,0 0.04796,0 -0.575548,0.17586 z" /></clipPath><linearGradient
       inkscape:collect="always"
       xlink:href="#linearGradient45"
       id="linearGradient30"
       gradientUnits="userSpaceOnUse"
       x1="86.84948"
       y1="137.61937"
       x2="120.31147"
       y2="137.61937" /><linearGradient
       inkscape:collect="always"
       xlink:href="#linearGradient47"
       id="linearGradient48"
       x1="93.495033"
       y1="138.0939"
       x2="113.61453"
       y2="138.0939"
       gradientUnits="userSpaceOnUse" /><linearGradient
       inkscape:collect="always"
       xlink:href="#linearGradient51"
       id="linearGradient52"
       x1="105.63494"
       y1="130.50203"
       x2="111.03712"
       y2="130.50203"
       gradientUnits="userSpaceOnUse" /><linearGradient
       inkscape:collect="always"
       xlink:href="#linearGradient53"
       id="linearGradient54"
       x1="64.452034"
       y1="194.53072"
       x2="126.29983"
       y2="194.53072"
       gradientUnits="userSpaceOnUse" /></defs><g
     inkscape:groupmode="layer"
     id="layer2"
     inkscape:label="Capa 2"
     style="display:inline"><path
       id="path1"
       clip-path="url(#clipPath12)"
       style="display:inline;fill:url(#linearGradient30);fill-opacity:1;stroke:none;stroke-width:0.264583;stroke-opacity:1"
       inkscape:label="path1"
       d="m 98.641778,118.99635 5.019332,1.69551 0.71055,-0.23358 4.19974,-1.41852 2.38539,0.65578 -0.0605,0.0202 0.17673,0.0506 -0.71934,0.13023 -0.6599,0.21962 5.08031,3.21531 -0.14263,0.0362 0.24805,0.1602 h -0.88419 l -0.0434,0.0108 4.80953,4.88291 0.49403,2.38383 1.0821,4.16512 -0.29404,-0.3638 0.0708,0.34107 -1.16117,-1.11983 c 0.0124,0.0545 0.40618,1.88925 0.76533,3.56309 l 0.59273,2.42155 -1.70274,-1.6092 -0.66921,7.55406 -0.83923,-1.55288 c -0.12626,-0.17592 -0.22874,-0.31437 -0.24753,-0.32142 -0.0302,-0.0113 -0.70464,1.49348 -1.39733,3.05873 l -1.54512,3.60339 -0.0202,-0.0429 -0.003,0.008 -0.79168,-1.55081 -0.0155,0.0145 -7.29413,6.88485 -0.74983,-1.49396 -1.4273,1.8774 -1.45418,-1.87482 -0.72657,1.44849 -3.356897,-3.1688 -3.95273,-3.64422 -0.791683,1.55081 -0.02274,-0.0522 -5.17e-4,0.001 -0.03307,-0.0765 c -0.107347,-0.24598 -2.846663,-6.52287 -2.909383,-6.49934 -0.02792,0.0105 -0.232071,0.29631 -0.447001,0.60358 l -0.639754,1.1839 -0.66921,-7.55406 -1.702738,1.60921 0.74414,-3.03909 c 0.210636,-0.97913 0.629441,-2.93472 0.637171,-2.9683 l -1.184424,1.14257 0.04651,-0.22428 -0.269751,0.33383 0.994254,-3.82819 0.582394,-2.80758 4.740795,-4.81314 -0.31936,-0.0806 h -0.540019 l 0.151412,-0.0982 -0.04599,-0.0114 3.014803,-1.9079 2.125452,-1.37407 -0.150895,-0.0501 -1.288294,-0.23306 0.316777,-0.091 -0.200505,-0.0667 z"
       transform="matrix(-1,0,0,1,207.18709,0)" /><path
       id="path13"
       style="display:inline;fill:url(#linearGradient48);stroke-width:0.264583"
       d="m 110.91984,127.19585 0.007,0.0233 -0.007,-0.0155 0.0713,0.23564 1.55805,5.37176 -3.03703,3.50728 0.0212,1.29243 -0.0646,1.46089 c 0,0 -2.28385,2.65672 -2.32905,2.74712 -0.0445,0.089 -2.92784,-1.17104 -3.02462,-1.21336 l -0.15038,-1.32808 3.11712,-2.69906 -0.0181,-0.0331 0.0196,-0.0171 -2.27376,-4.09794 -0.64441,-1.17667 0.0114,0.0357 -0.0661,-0.11937 0.22221,0.60513 0.9741,3.03599 -3.53673,0.0217 1.05161,-3.6742 -2.80396,5.3697 0.017,0.0145 -0.0186,0.0357 3.11506,2.68665 -0.15142,1.33016 -2.2996,1.02939 c -0.39296,0.1557 -0.706701,0.27177 -0.720367,0.24443 -0.0452,-0.0904 -2.32854,-2.74712 -2.32854,-2.74712 l -0.06563,-1.49241 0.0217,-1.36116 -3.01532,-3.48196 1.607654,-5.54023 -0.06046,0.12971 0.02377,-0.078 -2.6479,5.71489 3.145544,3.58635 0.03307,1.04541 -0.0186,1.9296 1.278475,2.0438 0.07751,2.69545 2.192634,2.3058 1.36787,-0.032 0.20412,1.0945 0.21963,-0.31057 0.10438,0.81804 0.003,0.032 10e-4,-0.002 5.2e-4,0.004 0.46922,-0.48214 1.00666,1.21647 0.0217,0.0346 0.003,-0.005 0.001,10e-4 0.006,-0.0103 0.8878,-1.23352 0.5333,0.47284 0.0103,0.0155 0.002,-0.0444 0.0713,-0.85163 0.0419,0.0589 0.15916,0.27441 0.005,-0.0413 0.002,0.003 0.19637,-1.05058 0.78858,-0.0258 0.58704,0.0139 1.97249,-2.07377 0.2279,-0.23306 -0.003,-0.14367 0.0734,-2.55074 1.27847,-2.04381 -0.0181,-1.865 0.032,-1.00976 1.92237,-2.36419 1.23248,-1.42937 z" /><text
       xml:space="preserve"
       transform="matrix(1.2620651,0,0,1.2970366,-232.87359,-633.96654)"
       id="text52"
       style="font-style:normal;font-variant:normal;font-weight:normal;font-stretch:normal;font-size:12px;font-family:'Microsoft Sans Serif';-inkscape-font-specification:'Microsoft Sans Serif, Normal';font-variant-ligatures:normal;font-variant-caps:normal;font-variant-numeric:normal;font-variant-east-asian:normal;white-space:pre;shape-inside:url(#rect52);display:inline;fill:#ffffff;fill-opacity:1;stroke:none;stroke-opacity:1"><tspan
         x="232.28516"
         y="621.74851"
         id="tspan1">ILASED S.A.</tspan></text><path
       id="path14"
       style="display:inline;fill:url(#linearGradient52);stroke-width:0.264583"
       d="m 108.94219,129.43809 c 0,0 -0.01,-0.0136 -3.30729,1.87483 l 2.05568,-0.43667 c 0.0112,0.35155 0.74368,0.69136 0.95447,0.68936 0.20519,0.0109 0.8152,-0.36559 0.8232,-0.80615 l 0.59635,0.0351 0.38602,0.35088 0.58653,-0.008 z m -10.571967,0.009 -2.094963,1.69912 0.586528,0.008 0.386023,-0.35089 0.596346,-0.0351 c 0.008,0.44056 0.618016,0.81707 0.823205,0.80615 0.21079,0.002 0.942747,-0.33781 0.953947,-0.68936 l 2.056201,0.43667 c -3.297432,-1.88843 -3.307287,-1.87482 -3.307287,-1.87482 z" /><text
       xml:space="preserve"
       style="font-style:normal;font-variant:normal;font-weight:normal;font-stretch:normal;font-size:8.3064px;font-family:'Microsoft Sans Serif';-inkscape-font-specification:'Microsoft Sans Serif, Normal';font-variant-ligatures:normal;font-variant-caps:normal;font-variant-numeric:normal;font-variant-east-asian:normal;fill:url(#linearGradient54);fill-opacity:1;stroke:none;stroke-width:0.14912;stroke-opacity:1"
       x="63.689529"
       y="198.21141"
       id="text53"
       transform="scale(1.0902033,0.91726015)"><tspan
         sodipodi:role="line"
         id="tspan53"
         style="fill:url(#linearGradient54);stroke-width:0.14912"
         x="63.689529"
         y="198.21141">ILASED ES MÁS</tspan></text></g></svg>
