<?xml version="1.0" encoding="UTF-8" standalone="no"?>
<!-- Created with Inkscape (http://www.inkscape.org/) -->

<svg
   width="210"
   height="238"
   viewBox="0 0 210 238"
   version="1.1"
   id="svg1"
   xml:space="preserve"
   inkscape:version="1.3.1 (91b66b0783, 2023-11-16)"
   sodipodi:docname="ILASED_LOGO2.svg"
   xmlns:inkscape="http://www.inkscape.org/namespaces/inkscape"
   xmlns:sodipodi="http://sodipodi.sourceforge.net/DTD/sodipodi-0.dtd"
   xmlns:xlink="http://www.w3.org/1999/xlink"
   xmlns="http://www.w3.org/2000/svg"
   xmlns:svg="http://www.w3.org/2000/svg"><sodipodi:namedview
     id="namedview1"
     pagecolor="#ffffff"
     bordercolor="#000000"
     borderopacity="0.25"
     inkscape:showpageshadow="2"
     inkscape:pageopacity="0.0"
     inkscape:pagecheckerboard="0"
     inkscape:deskcolor="#d1d1d1"
     inkscape:document-units="px"
     showguides="true"
     inkscape:zoom="1"
     inkscape:cx="192"
     inkscape:cy="-1.5"
     inkscape:window-width="1920"
     inkscape:window-height="1017"
     inkscape:window-x="-8"
     inkscape:window-y="-8"
     inkscape:window-maximized="1"
     inkscape:current-layer="layer2"
     showgrid="false" /><defs
     id="defs1"><inkscape:path-effect
       effect="powerclip"
       id="path-effect29"
       is_visible="true"
       lpeversion="1"
       inverse="true"
       flatten="false"
       hide_clip="false"
       message="Utilice la regla de relleno parimpar en el diálogo &lt;b&gt;Relleno y borde&lt;/b&gt; si el resultado no está aplanada después de convertir el recorte en trayectos." /><inkscape:path-effect
       effect="powerclip"
       id="path-effect4"
       is_visible="true"
       lpeversion="1"
       inverse="true"
       flatten="false"
       hide_clip="false"
       message="Utilice la regla de relleno parimpar en el diálogo &lt;b&gt;Relleno y borde&lt;/b&gt; si el resultado no está aplanada después de convertir el recorte en trayectos." /><rect
       x="232.28458"
       y="610.94025"
       width="319.2587"
       height="42.426407"
       id="rect52" /><linearGradient
       id="linearGradient51"
       inkscape:collect="always"><stop
         style="stop-color:#2bff00;stop-opacity:1;"
         offset="0"
         id="stop51" /><stop
         style="stop-color:#ffff00;stop-opacity:1;"
         offset="0.80000001"
         id="stop52" /></linearGradient><linearGradient
       id="linearGradient47"
       inkscape:collect="always"><stop
         style="stop-color:#2bff00;stop-opacity:1;"
         offset="0"
         id="stop47" /><stop
         style="stop-color:#ffff00;stop-opacity:1;"
         offset="1"
         id="stop48" /></linearGradient><clipPath
       clipPathUnits="userSpaceOnUse"
       id="clipPath12"><path
         id="lpe_path-effect12"
         style="display:inline;fill:#000000;stroke-width:0.264583"
         class="powerclip"
         d="m 81.875624,114.03967 h 43.435846 v 47.20271 H 81.875624 Z m 16.159218,5.78602 0.927272,0.28771 -5.179926,3.00563 0.606719,0.0278 -5.466892,5.55185 -0.735423,3.75704 1.278993,-1.23103 -1.662689,6.68274 1.374918,-1.24702 0.36771,7.03446 0.845394,-1.20969 2.825893,6.67853 0.718631,-1.0844 7.253608,6.84763 0.84733,-1.58356 1.53673,2.01602 1.57192,-2.08304 0.74318,1.59405 7.40023,-6.82776 0.6379,1.06841 2.85319,-6.82663 0.73849,1.27125 0.42423,-6.85052 1.10862,0.92226 -1.44743,-6.73847 1.39091,1.51881 -0.97524,-3.67711 -5.35933,-5.55586 0.73349,-0.0678 -5.27037,-3.04149 0.84733,-0.20783 -0.67147,-0.19185 -4.74826,1.5188 -4.94011,-1.53479 c 0,0 0.04796,0 -0.575548,0.17586 z" /></clipPath><clipPath
       clipPathUnits="userSpaceOnUse"
       id="clipPath4"><path
         style="display:block;fill:#000000;fill-opacity:1"
         d="m 79.461124,42.514795 -4.50781,-1.237437 3.53553,-1.149048 28.195876,9.104 29.07977,-9.192389 3.35876,1.060661 -4.86136,1.679378 30.05204,17.854446 -3.53553,0.08839 32.52691,32.968853 4.15425,22.097091 -7.33623,-6.98268 9.45756,39.15603 -7.86657,-7.42462 -2.20971,41.89608 -4.94974,-7.07107 -16.97057,39.15604 -4.06586,-6.01041 -43.04514,40.2167 -4.77297,-9.28078 -9.19238,11.93243 -9.192386,-12.37437 -4.33103,9.19239 -43.92901,-40.03992 -4.24264,6.09879 -16.35184,-40.39347 -4.33103,7.6014 -2.65165,-40.39348 -6.54074,5.3033 8.57367,-39.77475 -8.13173,8.83883 5.65686,-21.655142 31.64303,-32.880466 -3.97748,-0.441941 z"
         id="path4" /></clipPath><clipPath
       clipPathUnits="userSpaceOnUse"
       id="clipPath26"><g
         id="g28"
         inkscape:label="g15"
         style="display:none"><path
           id="path26"
           style="display:inline;fill:url(#linearGradient28);stroke-width:1.56507"
           d="m 150.44995,84.760807 0.0413,0.137826 -0.0413,-0.09169 0.42175,1.393864 9.21622,31.775153 -17.96473,20.74635 0.12542,7.64501 -0.38213,8.6415 c 0,0 -13.50948,15.7151 -13.77684,16.24983 -0.26323,0.52646 -17.31883,-6.92696 -17.89131,-7.1773 l -0.88954,-7.85589 18.43846,-15.96554 -0.10705,-0.19579 0.11593,-0.10111 -13.44979,-24.24024 -3.81184,-6.96028 0.0674,0.21116 -0.39099,-0.7061 1.31441,3.57949 5.76203,17.95856 -20.920546,0.12837 6.220496,-21.73373 -16.586039,31.76301 0.100553,0.0858 -0.110022,0.21118 18.426268,15.89212 -0.89568,7.86821 -13.602642,6.08907 c -2.324447,0.921 -4.180295,1.60759 -4.261134,1.44586 -0.267338,-0.53474 -13.773806,-16.24982 -13.773806,-16.24982 l -0.388217,-8.82795 0.12836,-8.05157 -17.836293,-20.59657 9.509634,-32.771705 -0.357635,0.767266 0.140606,-0.461388 -15.662924,33.804857 18.606599,21.21407 0.195617,6.18382 -0.110023,11.41403 7.562464,12.08952 0.45849,15.94421 12.969922,13.63932 8.091259,-0.1893 1.207415,6.47421 1.29916,-1.83708 0.617429,4.83889 0.01774,0.18928 0.0061,-0.0119 0.003,0.0237 2.775549,-2.85197 5.95462,7.1957 0.12837,0.20466 0.0178,-0.0295 0.007,0.007 0.0355,-0.0609 5.25152,-7.29656 3.15458,2.79697 0.0609,0.0917 0.0119,-0.26265 0.42175,-5.03756 0.24786,0.3484 0.94146,1.6232 0.0295,-0.2443 0.0119,0.0176 1.16158,-6.21441 4.66462,-0.15261 3.47248,0.0822 11.66771,-12.26681 1.3481,-1.3786 -0.0178,-0.84984 0.43419,-15.08822 7.56242,-12.0896 -0.10706,-11.03189 0.18929,-5.97297 11.37124,-13.9847 7.2904,-8.45504 z" /><path
           id="path27"
           style="display:inline;fill:url(#linearGradient29);stroke-width:1.56507"
           d="m 138.75171,98.024154 c 0,0 -0.0592,-0.08042 -19.56336,11.090046 l 12.15981,-2.58301 c 0.0662,2.07949 4.39901,4.08955 5.6459,4.07773 1.21373,0.0644 4.82209,-2.16256 4.8694,-4.76858 l 3.52755,0.20763 2.2834,2.07553 3.46944,-0.0472 z m -62.535553,0.05325 -12.392176,10.050656 3.469445,0.0472 2.283411,-2.07559 3.527522,-0.20763 c 0.04733,2.60601 3.655702,4.83316 4.869441,4.76855 1.24687,0.0118 5.576561,-1.99821 5.64281,-4.07771 l 12.162892,2.583 C 76.274451,97.995524 76.216157,98.076027 76.216157,98.076027 Z" /><path
           style="display:inline;fill:#ffffff;fill-opacity:1"
           d="m 106.6875,49.25 c 0,0 -27.312499,-9.1875 -28.249999,-9.125 -0.9375,0.0625 -3.5,1.1875 -3.5,1.1875 l 4.5625,1.25 -30.625,18.125 3.75,0.25 c 0,0 -31.3125,32.4375 -31.5625,32.6875 -0.25,0.25 -5.5,21.6875 -5.5,21.6875 l 7.875,-8.6875 -8.4375,39.5625 6.375,-5.125 2.8125,40.0625 4.25,-7.25 17.25,39.75 3.4375,-5.4375 43.6875,39.9375 4.4375,-9.1875 9.249999,12.4375 9.25,-11.875 4.8125,9.1875 42.8125,-40.125 4.3125,5.9375 16.875,-39 4.9375,7 2.1875,-42 7.8125,7.5 -9.4375,-39.25 7.375,7.125 -4,-22.1875 -32.625,-32.9375 3.5,-0.1875 -30.0625,-17.875 4.75,-1.5 -3.0625,-1.3125 -28.625,9.25 0.0625,-3.25 28.8125,-9.5 14.875,4.8125 -8.4375,1.375 31.0625,20.375 -5.1875,0.5 28.1875,28.3125 9.25,39.25 -8.3125,-7.4375 8.25,35.5625 -10.25,-9.5 -3.8125,44.625 -6.5,-10.625 -17.3125,39.3125 -5.75,-8.5625 -42.375,39.5625 -4.375,-8.375 -8.4375,11.0625 -8.562499,-11 -4.3125,8.625 -43.25,-40.6875 -4.8125,9.0625 -17.5625,-39.5625 -6.5,11.5 -3.75,-44.75 -10.0624999,9.625 L 16.250001,124 l -8.1874999,6.5 9.1249999,-38.1875 28.8125,-29.75 -5.625,0.375 30.4375,-20.0625 -7.4375,-2 14.375,-4.5 28.999999,9.6875 0.75,-0.3125 -0.1875,3.375 z"
           id="path28" /></g><path
         id="lpe_path-effect29"
         class="powerclip"
         d="M -5.7071068,23.991379 H 215.71782 V 271.57925 H -5.7071068 Z m 156.1570568,60.769428 0.0413,0.137826 -0.0413,-0.09169 0.42175,1.393864 9.21622,31.775153 -17.96473,20.74635 0.12542,7.64501 -0.38213,8.6415 c 0,0 -13.50948,15.7151 -13.77684,16.24983 -0.26323,0.52646 -17.31883,-6.92696 -17.89131,-7.1773 l -0.88954,-7.85589 18.43846,-15.96554 -0.10705,-0.19579 0.11593,-0.10111 -13.44979,-24.24024 -3.81184,-6.96028 0.0674,0.21116 -0.39099,-0.7061 1.31441,3.57949 5.76203,17.95856 -20.920546,0.12837 6.220496,-21.73373 -16.586039,31.76301 0.100553,0.0858 -0.110022,0.21118 18.426268,15.89212 -0.89568,7.86821 -13.602642,6.08907 c -2.324447,0.921 -4.180295,1.60759 -4.261134,1.44586 -0.267338,-0.53474 -13.773806,-16.24982 -13.773806,-16.24982 l -0.388217,-8.82795 0.12836,-8.05157 -17.836293,-20.59657 9.509634,-32.771705 -0.357635,0.767266 0.140606,-0.461388 -15.662924,33.804857 18.606599,21.21407 0.195617,6.18382 -0.110023,11.41403 7.562464,12.08952 0.45849,15.94421 12.969922,13.63932 8.091259,-0.1893 1.207415,6.47421 1.29916,-1.83708 0.617429,4.83889 0.01774,0.18928 0.0061,-0.0119 0.003,0.0237 2.775549,-2.85197 5.95462,7.1957 0.12837,0.20466 0.0178,-0.0295 0.007,0.007 0.0355,-0.0609 5.25152,-7.29656 3.15458,2.79697 0.0609,0.0917 0.0119,-0.26265 0.42175,-5.03756 0.24786,0.3484 0.94146,1.6232 0.0295,-0.2443 0.0119,0.0176 1.16158,-6.21441 4.66462,-0.15261 3.47248,0.0822 11.66771,-12.26681 1.3481,-1.3786 -0.0178,-0.84984 0.43419,-15.08822 7.56242,-12.0896 -0.10706,-11.03189 0.18929,-5.97297 11.37124,-13.9847 7.2904,-8.45504 z m -11.69824,13.263347 c 0,0 -0.0592,-0.08042 -19.56336,11.090046 l 12.15981,-2.58301 c 0.0662,2.07949 4.39901,4.08955 5.6459,4.07773 1.21373,0.0644 4.82209,-2.16256 4.8694,-4.76858 l 3.52755,0.20763 2.2834,2.07553 3.46944,-0.0472 z m -62.535553,0.05325 -12.392176,10.050656 3.469445,0.0472 2.283411,-2.07559 3.527522,-0.20763 c 0.04733,2.60601 3.655702,4.83316 4.869441,4.76855 1.24687,0.0118 5.576561,-1.99821 5.64281,-4.07771 l 12.162892,2.583 C 76.274451,97.995524 76.216157,98.076027 76.216157,98.076027 Z M 106.6875,49.25 l 0.625,-0.125 0.1875,-3.375 -0.75,0.3125 -28.999999,-9.6875 -14.375,4.5 7.4375,2 -30.4375,20.0625 5.625,-0.375 -28.8125,29.75 -9.1249999,38.1875 8.1874999,-6.5 -7.9999999,35.4375 10.0624999,-9.625 3.75,44.75 6.5,-11.5 17.5625,39.5625 4.8125,-9.0625 43.25,40.6875 4.3125,-8.625 8.562499,11 8.4375,-11.0625 4.375,8.375 42.375,-39.5625 5.75,8.5625 17.3125,-39.3125 6.5,10.625 3.8125,-44.625 10.25,9.5 -8.25,-35.5625 8.3125,7.4375 -9.25,-39.25 -28.1875,-28.3125 5.1875,-0.5 -31.0625,-20.375 8.4375,-1.375 -14.875,-4.8125 -28.8125,9.5 -0.0625,3.25 28.625,-9.25 3.0625,1.3125 -4.75,1.5 30.0625,17.875 -3.5,0.1875 32.625,32.9375 4,22.1875 -7.375,-7.125 9.4375,39.25 -7.8125,-7.5 -2.1875,42 -4.9375,-7 -16.875,39 -4.3125,-5.9375 -42.8125,40.125 -4.8125,-9.1875 -9.25,11.875 -9.249999,-12.4375 -4.4375,9.1875 -43.6875,-39.9375 -3.4375,5.4375 -17.25,-39.75 -4.25,7.25 -2.8125,-40.0625 -6.375,5.125 8.4375,-39.5625 -7.875,8.6875 c 0,0 5.25,-21.4375 5.5,-21.6875 0.25,-0.25 31.5625,-32.6875 31.5625,-32.6875 l -3.75,-0.25 30.625,-18.125 -4.5625,-1.25 c 0,0 2.5625,-1.125 3.5,-1.1875 0.9375,-0.0625 28.249999,9.125 28.249999,9.125 z" /></clipPath><linearGradient
       inkscape:collect="always"
       xlink:href="#linearGradient47"
       id="linearGradient28"
       gradientUnits="userSpaceOnUse"
       gradientTransform="matrix(5.9152241,0,0,5.9152241,-505.66574,-667.63114)"
       x1="93.495033"
       y1="138.0939"
       x2="113.61453"
       y2="138.0939" /><linearGradient
       inkscape:collect="always"
       xlink:href="#linearGradient51"
       id="linearGradient29"
       gradientUnits="userSpaceOnUse"
       gradientTransform="matrix(5.9152241,0,0,5.9152241,-505.66574,-667.63114)"
       x1="105.63494"
       y1="130.50203"
       x2="111.03712"
       y2="130.50203" /></defs><g
     inkscape:groupmode="layer"
     id="layer2"
     inkscape:label="Capa 2"
     style="display:inline"><path
       style="fill:#1a1e23;fill-opacity:1"
       id="rect5"
       width="211.42493"
       height="237.58788"
       x="-0.70710677"
       y="28.991379"
       clip-path="url(#clipPath26)"
       inkscape:path-effect="#path-effect29"
       sodipodi:type="rect"
       d="M -0.70710677,28.991379 H 210.71782 V 266.57925 H -0.70710677 Z"
       transform="matrix(0.99333717,0,0,1.0017298,0.70239544,-29.039241)" /></g></svg>
