<?xml version="1.0" encoding="UTF-8" standalone="no"?>
<!-- Created with Inkscape (http://www.inkscape.org/) -->

<svg
   width="100%"
   height="100%"
   viewBox="0 0 210 297"
   version="1.1"
   id="svg1"
   xml:space="preserve"
   inkscape:version="1.3.1 (91b66b0783, 2023-11-16)"
   sodipodi:docname="ILASED_LOGO.svg"
   xmlns:inkscape="http://www.inkscape.org/namespaces/inkscape"
   xmlns:sodipodi="http://sodipodi.sourceforge.net/DTD/sodipodi-0.dtd"
   xmlns:xlink="http://www.w3.org/1999/xlink"
   xmlns="http://www.w3.org/2000/svg"
   xmlns:svg="http://www.w3.org/2000/svg"><sodipodi:namedview
     id="namedview1"
     pagecolor="#ffffff"
     bordercolor="#000000"
     borderopacity="0.25"
     inkscape:showpageshadow="2"
     inkscape:pageopacity="0.0"
     inkscape:pagecheckerboard="0"
     inkscape:deskcolor="#d1d1d1"
     inkscape:document-units="mm"
     showguides="true"
     inkscape:zoom="1"
     inkscape:cx="226"
     inkscape:cy="211.5"
     inkscape:window-width="1920"
     inkscape:window-height="1017"
     inkscape:window-x="-8"
     inkscape:window-y="-8"
     inkscape:window-maximized="1"
     inkscape:current-layer="layer2"
     showgrid="false" /><defs
     id="defs1"><rect
       x="232.28458"
       y="610.94025"
       width="319.2587"
       height="42.426407"
       id="rect52" /><linearGradient
       id="linearGradient51"
       inkscape:collect="always"><stop
         style="stop-color:#2bff00;stop-opacity:1;"
         offset="0"
         id="stop51" /><stop
         style="stop-color:#ffff00;stop-opacity:1;"
         offset="0.80000001"
         id="stop52" /></linearGradient><linearGradient
       id="linearGradient47"
       inkscape:collect="always"><stop
         style="stop-color:#2bff00;stop-opacity:1;"
         offset="0"
         id="stop47" /><stop
         style="stop-color:#ffff00;stop-opacity:1;"
         offset="1"
         id="stop48" /></linearGradient><linearGradient
       id="linearGradient45"
       inkscape:collect="always"><stop
         style="stop-color:#eaff00;stop-opacity:1;"
         offset="0"
         id="stop44" /><stop
         style="stop-color:#37ff0f;stop-opacity:1;"
         offset="1"
         id="stop45" /></linearGradient><clipPath
       clipPathUnits="userSpaceOnUse"
       id="clipPath12"><path
         id="lpe_path-effect12"
         style="display:inline;fill:#000000;stroke-width:0.264583"
         class="powerclip"
         d="m 81.875624,114.03967 h 43.435846 v 47.20271 H 81.875624 Z m 16.159218,5.78602 0.927272,0.28771 -5.179926,3.00563 0.606719,0.0278 -5.466892,5.55185 -0.735423,3.75704 1.278993,-1.23103 -1.662689,6.68274 1.374918,-1.24702 0.36771,7.03446 0.845394,-1.20969 2.825893,6.67853 0.718631,-1.0844 7.253608,6.84763 0.84733,-1.58356 1.53673,2.01602 1.57192,-2.08304 0.74318,1.59405 7.40023,-6.82776 0.6379,1.06841 2.85319,-6.82663 0.73849,1.27125 0.42423,-6.85052 1.10862,0.92226 -1.44743,-6.73847 1.39091,1.51881 -0.97524,-3.67711 -5.35933,-5.55586 0.73349,-0.0678 -5.27037,-3.04149 0.84733,-0.20783 -0.67147,-0.19185 -4.74826,1.5188 -4.94011,-1.53479 c 0,0 0.04796,0 -0.575548,0.17586 z" /></clipPath><linearGradient
       inkscape:collect="always"
       xlink:href="#linearGradient45"
       id="linearGradient30"
       gradientUnits="userSpaceOnUse"
       x1="86.84948"
       y1="137.61937"
       x2="120.31147"
       y2="137.61937" /><linearGradient
       inkscape:collect="always"
       xlink:href="#linearGradient47"
       id="linearGradient48"
       x1="93.495033"
       y1="138.0939"
       x2="113.61453"
       y2="138.0939"
       gradientUnits="userSpaceOnUse"
       gradientTransform="matrix(7.3496881,0,0,7.3496881,-654.24822,-865.04116)" /><linearGradient
       inkscape:collect="always"
       xlink:href="#linearGradient51"
       id="linearGradient52"
       x1="105.63494"
       y1="130.50203"
       x2="111.03712"
       y2="130.50203"
       gradientUnits="userSpaceOnUse"
       gradientTransform="matrix(7.3496881,0,0,7.3496881,-654.24822,-865.04116)" /></defs><g
     inkscape:groupmode="layer"
     id="layer2"
     inkscape:label="Capa 2"
     style="display:inline"><path
       id="path1"
       clip-path="url(#clipPath12)"
       style="display:inline;fill:url(#linearGradient30);fill-opacity:1;stroke:none;stroke-width:0.264583;stroke-opacity:1"
       inkscape:label="path1"
       d="m 98.641778,118.99635 5.019332,1.69551 0.71055,-0.23358 4.19974,-1.41852 2.38539,0.65578 -0.0605,0.0202 0.17673,0.0506 -0.71934,0.13023 -0.6599,0.21962 5.08031,3.21531 -0.14263,0.0362 0.24805,0.1602 h -0.88419 l -0.0434,0.0108 4.80953,4.88291 0.49403,2.38383 1.0821,4.16512 -0.29404,-0.3638 0.0708,0.34107 -1.16117,-1.11983 c 0.0124,0.0545 0.40618,1.88925 0.76533,3.56309 l 0.59273,2.42155 -1.70274,-1.6092 -0.66921,7.55406 -0.83923,-1.55288 c -0.12626,-0.17592 -0.22874,-0.31437 -0.24753,-0.32142 -0.0302,-0.0113 -0.70464,1.49348 -1.39733,3.05873 l -1.54512,3.60339 -0.0202,-0.0429 -0.003,0.008 -0.79168,-1.55081 -0.0155,0.0145 -7.29413,6.88485 -0.74983,-1.49396 -1.4273,1.8774 -1.45418,-1.87482 -0.72657,1.44849 -3.356897,-3.1688 -3.95273,-3.64422 -0.791683,1.55081 -0.02274,-0.0522 -5.17e-4,0.001 -0.03307,-0.0765 c -0.107347,-0.24598 -2.846663,-6.52287 -2.909383,-6.49934 -0.02792,0.0105 -0.232071,0.29631 -0.447001,0.60358 l -0.639754,1.1839 -0.66921,-7.55406 -1.702738,1.60921 0.74414,-3.03909 c 0.210636,-0.97913 0.629441,-2.93472 0.637171,-2.9683 l -1.184424,1.14257 0.04651,-0.22428 -0.269751,0.33383 0.994254,-3.82819 0.582394,-2.80758 4.740795,-4.81314 -0.31936,-0.0806 h -0.540019 l 0.151412,-0.0982 -0.04599,-0.0114 3.014803,-1.9079 2.125452,-1.37407 -0.150895,-0.0501 -1.288294,-0.23306 0.316777,-0.091 -0.200505,-0.0667 z"
       transform="matrix(-7.3496883,0,0,7.3496883,868.51224,-865.04124)" /><path
       id="path13"
       style="display:inline;fill:url(#linearGradient48);stroke-width:1.9446"
       d="m 160.97797,69.808643 0.0514,0.171249 -0.0514,-0.113924 0.52403,1.731881 11.45118,39.480751 -22.32123,25.77741 0.15583,9.49896 -0.4748,10.73709 c 0,0 -16.78558,19.52607 -17.11778,20.19048 -0.32706,0.65412 -21.51871,-8.60677 -22.23002,-8.91782 l -1.10525,-9.76097 22.90985,-19.83725 -0.13301,-0.24327 0.14405,-0.12563 -16.71142,-30.1186 -4.73623,-8.648167 0.0837,0.262374 -0.4858,-0.877329 1.63315,4.447522 7.15935,22.31358 -25.993855,0.1595 7.728995,-27.004246 -20.60822,39.465656 0.124937,0.1066 -0.136703,0.26238 22.894706,19.74603 -1.11288,9.77627 -16.901339,7.5657 c -2.888134,1.14434 -5.194031,1.99743 -5.294474,1.79649 -0.332168,-0.66441 -17.114005,-20.19047 -17.114005,-20.19047 l -0.482361,-10.96876 0.159488,-10.0041 -22.161662,-25.59132 11.815756,-40.71896 -0.444363,0.95333 0.174704,-0.573276 -19.461241,42.002656 23.118768,26.35856 0.243055,7.68343 -0.136704,14.18197 9.39639,15.02127 0.569675,19.81074 16.115177,16.94691 10.05342,-0.2352 1.500217,8.04423 1.614211,-2.28259 0.767157,6.01234 0.02205,0.23518 0.0076,-0.0148 0.0038,0.0294 3.448619,-3.54357 7.398642,8.94067 0.1595,0.2543 0.0221,-0.0367 0.008,0.008 0.0441,-0.0757 6.52504,-9.06599 3.91957,3.47523 0.0757,0.11391 0.0148,-0.32634 0.52403,-6.25919 0.30796,0.43289 1.16977,2.01683 0.0367,-0.30354 0.0148,0.0219 1.44326,-7.72143 5.79582,-0.18962 4.31456,0.10219 14.49718,-15.24156 1.67501,-1.71292 -0.0221,-1.05592 0.53948,-18.74718 9.39634,-15.02136 -0.13302,-13.70717 0.23519,-7.42143 14.12881,-17.37605 9.05835,-10.50542 z" /><path
       id="path14"
       style="display:inline;fill:url(#linearGradient52);stroke-width:1.9446"
       d="m 146.44286,86.2884 c 0,0 -0.0736,-0.09992 -24.30754,13.77942 l 15.1086,-3.209396 c 0.0823,2.583776 5.4658,5.081276 7.01505,5.066586 1.50808,0.0801 5.99147,-2.68698 6.05026,-5.924964 l 4.38299,0.257976 2.83713,2.578862 4.3108,-0.05872 z m -77.70065,0.06616 -15.397326,12.487988 4.310799,0.05872 2.837147,-2.578925 4.382959,-0.257976 c 0.0588,3.237971 4.542224,6.005213 6.050299,5.924943 1.54924,0.0147 6.928896,-2.482789 7.011211,-5.066578 l 15.112439,3.209388 C 68.81464,86.252828 68.74221,86.352853 68.74221,86.352853 Z" /></g></svg>
